<svg width="525" height="154" viewBox="0 0 525 154" fill="none" xmlns="http://www.w3.org/2000/svg">
<g filter="url(#filter0_d_113_6)">
<path d="M80.3274 119.814L68.6195 83.5752L152.248 30.0531L83.115 93.0531L80.3274 119.814Z" stroke="#A4D9FF" stroke-width="3.73391" shape-rendering="crispEdges"/>
</g>
<g filter="url(#filter1_d_113_6)">
<path d="M64.1593 84.6903L19 70.7522L167.858 15L141.097 138.212L103.186 108.106L79.2124 130.407L64.1593 84.6903Z" stroke="#A4D9FF" stroke-width="4.46018" shape-rendering="crispEdges"/>
</g>
<g filter="url(#filter2_d_113_6)">
<path d="M192.917 51.5928C191.073 51.5928 189.295 51.4116 187.582 51.0494C185.903 50.6872 184.405 50.1109 183.087 49.3205C181.77 48.4973 180.716 47.4435 179.926 46.1592C179.169 44.8749 178.79 43.2942 178.79 41.4171C178.79 41.2525 178.79 41.0878 178.79 40.9232C178.823 40.7585 178.839 40.5939 178.839 40.4292H183.581C183.581 40.528 183.565 40.6926 183.532 40.9232C183.532 41.1207 183.532 41.3019 183.532 41.4665C183.532 42.7838 183.927 43.9034 184.717 44.8255C185.508 45.7475 186.594 46.4391 187.978 46.9001C189.394 47.3282 190.991 47.5423 192.769 47.5423C193.559 47.5423 194.383 47.4929 195.239 47.3941C196.128 47.2953 196.968 47.1306 197.758 46.9001C198.581 46.6367 199.306 46.3074 199.931 45.9122C200.59 45.4841 201.1 44.9737 201.463 44.3809C201.858 43.7552 202.055 42.9978 202.055 42.1087C202.055 40.989 201.726 40.067 201.068 39.3425C200.442 38.5851 199.602 37.9758 198.548 37.5148C197.495 37.0209 196.293 36.5928 194.942 36.2305C193.625 35.8353 192.259 35.4566 190.843 35.0944C189.427 34.7322 188.043 34.3205 186.693 33.8595C185.376 33.3655 184.191 32.7728 183.137 32.0812C182.083 31.3567 181.227 30.4676 180.568 29.4138C179.942 28.36 179.63 27.0757 179.63 25.5609C179.63 24.1449 179.909 22.8771 180.469 21.7574C181.062 20.6378 181.918 19.6992 183.038 18.9418C184.191 18.1515 185.607 17.5587 187.286 17.1636C188.965 16.7355 190.892 16.5214 193.065 16.5214C194.844 16.5214 196.49 16.719 198.005 17.1142C199.553 17.4764 200.903 18.0527 202.055 18.843C203.241 19.6004 204.163 20.5719 204.822 21.7574C205.48 22.9429 205.81 24.3754 205.81 26.0549V26.6476H201.166V25.9067C201.166 24.787 200.821 23.832 200.129 23.0417C199.437 22.2514 198.482 21.6421 197.264 21.214C196.079 20.7859 194.728 20.5719 193.214 20.5719C191.238 20.5719 189.591 20.7695 188.274 21.1647C186.957 21.5269 185.969 22.0702 185.31 22.7947C184.684 23.4863 184.372 24.2766 184.372 25.1658C184.372 26.1866 184.684 27.0428 185.31 27.7344C185.969 28.4259 186.825 29.0022 187.879 29.4632C188.933 29.8913 190.135 30.2865 191.485 30.6487C192.835 31.011 194.201 31.3897 195.585 31.7848C197.001 32.1471 198.367 32.5752 199.684 33.0692C201.035 33.5302 202.237 34.1229 203.29 34.8474C204.377 35.539 205.233 36.4281 205.859 37.5148C206.485 38.5686 206.798 39.8694 206.798 41.4171C206.798 43.8211 206.205 45.7805 205.019 47.2953C203.834 48.7772 202.204 49.8639 200.129 50.5554C198.054 51.247 195.65 51.5928 192.917 51.5928ZM213.706 51V17.1142H218.398V51H213.706ZM242.138 51.5928C236.672 51.5928 232.506 50.1603 229.641 47.2953C226.809 44.4303 225.393 40.0176 225.393 34.0571C225.393 30.1712 226.052 26.9275 227.369 24.326C228.686 21.7245 230.629 19.7816 233.198 18.4973C235.766 17.18 238.895 16.5214 242.583 16.5214C244.888 16.5214 246.979 16.7684 248.856 17.2623C250.733 17.7563 252.347 18.5137 253.697 19.5346C255.08 20.5225 256.134 21.7739 256.858 23.2887C257.616 24.8035 257.994 26.5982 257.994 28.6729H253.203C253.203 27.2239 252.94 25.989 252.413 24.9682C251.886 23.9144 251.128 23.0582 250.14 22.3996C249.185 21.7409 248.066 21.2799 246.781 21.0165C245.497 20.7201 244.131 20.5719 242.682 20.5719C240.706 20.5719 238.944 20.8189 237.396 21.3128C235.848 21.8068 234.548 22.5807 233.494 23.6345C232.44 24.6883 231.633 26.0384 231.073 27.685C230.514 29.3315 230.234 31.2909 230.234 33.5631V34.6004C230.234 37.663 230.695 40.1493 231.617 42.0593C232.572 43.9693 233.938 45.3688 235.717 46.258C237.495 47.1142 239.635 47.5423 242.138 47.5423C244.674 47.5423 246.765 47.1965 248.412 46.5049C250.058 45.7805 251.277 44.6937 252.067 43.2448C252.89 41.7958 253.302 39.9682 253.302 37.7618V37.169H241.348V33.1679H258.044V51H254.487L253.993 46.7025C253.104 47.8551 252.05 48.7936 250.832 49.5181C249.614 50.2426 248.263 50.7695 246.781 51.0988C245.333 51.4281 243.785 51.5928 242.138 51.5928ZM266.189 51V17.1142H270.882V31.6367H289.307V17.1142H294.049V51H289.307V35.7366H270.882V51H266.189ZM310.86 51V21.214H299.252V17.1142H327.259V21.214H315.552V51H310.86ZM344.965 51.5928C343.121 51.5928 341.343 51.4116 339.63 51.0494C337.951 50.6872 336.452 50.1109 335.135 49.3205C333.818 48.4973 332.764 47.4435 331.974 46.1592C331.216 44.8749 330.838 43.2942 330.838 41.4171C330.838 41.2525 330.838 41.0878 330.838 40.9232C330.871 40.7585 330.887 40.5939 330.887 40.4292H335.629C335.629 40.528 335.613 40.6926 335.58 40.9232C335.58 41.1207 335.58 41.3019 335.58 41.4665C335.58 42.7838 335.975 43.9034 336.765 44.8255C337.556 45.7475 338.642 46.4391 340.025 46.9001C341.441 47.3282 343.039 47.5423 344.817 47.5423C345.607 47.5423 346.43 47.4929 347.287 47.3941C348.176 47.2953 349.016 47.1306 349.806 46.9001C350.629 46.6367 351.354 46.3074 351.979 45.9122C352.638 45.4841 353.148 44.9737 353.511 44.3809C353.906 43.7552 354.103 42.9978 354.103 42.1087C354.103 40.989 353.774 40.067 353.115 39.3425C352.49 38.5851 351.65 37.9758 350.596 37.5148C349.542 37.0209 348.34 36.5928 346.99 36.2305C345.673 35.8353 344.306 35.4566 342.89 35.0944C341.474 34.7322 340.091 34.3205 338.741 33.8595C337.424 33.3655 336.238 32.7728 335.185 32.0812C334.131 31.3567 333.275 30.4676 332.616 29.4138C331.99 28.36 331.677 27.0757 331.677 25.5609C331.677 24.1449 331.957 22.8771 332.517 21.7574C333.11 20.6378 333.966 19.6992 335.086 18.9418C336.238 18.1515 337.654 17.5587 339.334 17.1636C341.013 16.7355 342.94 16.5214 345.113 16.5214C346.892 16.5214 348.538 16.719 350.053 17.1142C351.601 17.4764 352.951 18.0527 354.103 18.843C355.289 19.6004 356.211 20.5719 356.87 21.7574C357.528 22.9429 357.858 24.3754 357.858 26.0549V26.6476H353.214V25.9067C353.214 24.787 352.868 23.832 352.177 23.0417C351.485 22.2514 350.53 21.6421 349.312 21.214C348.126 20.7859 346.776 20.5719 345.261 20.5719C343.286 20.5719 341.639 20.7695 340.322 21.1647C339.005 21.5269 338.017 22.0702 337.358 22.7947C336.732 23.4863 336.42 24.2766 336.42 25.1658C336.42 26.1866 336.732 27.0428 337.358 27.7344C338.017 28.4259 338.873 29.0022 339.927 29.4632C340.98 29.8913 342.182 30.2865 343.533 30.6487C344.883 31.011 346.249 31.3897 347.632 31.7848C349.049 32.1471 350.415 32.5752 351.732 33.0692C353.083 33.5302 354.285 34.1229 355.338 34.8474C356.425 35.539 357.281 36.4281 357.907 37.5148C358.533 38.5686 358.845 39.8694 358.845 41.4171C358.845 43.8211 358.253 45.7805 357.067 47.2953C355.882 48.7772 354.252 49.8639 352.177 50.5554C350.102 51.247 347.698 51.5928 344.965 51.5928ZM365.754 51V17.1142H391.835V21.1647H370.446V31.6367H389.661V35.6872H370.446V46.9495H392.131V51H365.754ZM399.183 51V17.1142H425.264V21.1647H403.876V31.6367H423.091V35.6872H403.876V46.9495H425.56V51H399.183ZM432.612 51V17.1142H450.444C452.749 17.1142 454.659 17.5423 456.174 18.3985C457.722 19.2217 458.875 20.3908 459.632 21.9056C460.389 23.3875 460.768 25.0999 460.768 27.0428C460.768 29.3809 460.241 31.3897 459.187 33.0692C458.134 34.7486 456.685 35.9506 454.841 36.6751L461.954 51H456.816L450.197 37.5148H437.305V51H432.612ZM437.305 33.5137H450C451.877 33.5137 453.342 32.9374 454.396 31.7848C455.483 30.6323 456.026 29.0516 456.026 27.0428C456.026 25.7914 455.796 24.7376 455.334 23.8814C454.873 23.0252 454.198 22.3666 453.309 21.9056C452.42 21.4116 451.317 21.1647 450 21.1647H437.305V33.5137ZM467.316 29.5126V27.5368C467.975 27.3721 468.502 27.0428 468.897 26.5488C469.325 26.0549 469.621 25.4457 469.786 24.7212C469.984 23.9967 470.082 23.1899 470.082 22.3008H467.81V17.1142H472.651V21.7574C472.651 23.6345 472.371 25.1164 471.811 26.2031C471.251 27.2898 470.56 28.0801 469.737 28.5741C468.946 29.0351 468.139 29.348 467.316 29.5126ZM492.768 51.5928C490.924 51.5928 489.146 51.4116 487.433 51.0494C485.754 50.6872 484.255 50.1109 482.938 49.3205C481.621 48.4973 480.567 47.4435 479.777 46.1592C479.019 44.8749 478.641 43.2942 478.641 41.4171C478.641 41.2525 478.641 41.0878 478.641 40.9232C478.674 40.7585 478.69 40.5939 478.69 40.4292H483.432C483.432 40.528 483.416 40.6926 483.383 40.9232C483.383 41.1207 483.383 41.3019 483.383 41.4665C483.383 42.7838 483.778 43.9034 484.568 44.8255C485.359 45.7475 486.445 46.4391 487.828 46.9001C489.244 47.3282 490.842 47.5423 492.62 47.5423C493.41 47.5423 494.233 47.4929 495.09 47.3941C495.979 47.2953 496.818 47.1306 497.609 46.9001C498.432 46.6367 499.157 46.3074 499.782 45.9122C500.441 45.4841 500.951 44.9737 501.314 44.3809C501.709 43.7552 501.906 42.9978 501.906 42.1087C501.906 40.989 501.577 40.067 500.918 39.3425C500.293 38.5851 499.453 37.9758 498.399 37.5148C497.345 37.0209 496.143 36.5928 494.793 36.2305C493.476 35.8353 492.109 35.4566 490.693 35.0944C489.277 34.7322 487.894 34.3205 486.544 33.8595C485.227 33.3655 484.041 32.7728 482.988 32.0812C481.934 31.3567 481.078 30.4676 480.419 29.4138C479.793 28.36 479.48 27.0757 479.48 25.5609C479.48 24.1449 479.76 22.8771 480.32 21.7574C480.913 20.6378 481.769 19.6992 482.889 18.9418C484.041 18.1515 485.457 17.5587 487.137 17.1636C488.816 16.7355 490.743 16.5214 492.916 16.5214C494.694 16.5214 496.341 16.719 497.856 17.1142C499.404 17.4764 500.754 18.0527 501.906 18.843C503.092 19.6004 504.014 20.5719 504.672 21.7574C505.331 22.9429 505.66 24.3754 505.66 26.0549V26.6476H501.017V25.9067C501.017 24.787 500.671 23.832 499.98 23.0417C499.288 22.2514 498.333 21.6421 497.115 21.214C495.929 20.7859 494.579 20.5719 493.064 20.5719C491.089 20.5719 489.442 20.7695 488.125 21.1647C486.807 21.5269 485.82 22.0702 485.161 22.7947C484.535 23.4863 484.222 24.2766 484.222 25.1658C484.222 26.1866 484.535 27.0428 485.161 27.7344C485.82 28.4259 486.676 29.0022 487.73 29.4632C488.783 29.8913 489.985 30.2865 491.335 30.6487C492.686 31.011 494.052 31.3897 495.435 31.7848C496.851 32.1471 498.218 32.5752 499.535 33.0692C500.885 33.5302 502.087 34.1229 503.141 34.8474C504.228 35.539 505.084 36.4281 505.71 37.5148C506.335 38.5686 506.648 39.8694 506.648 41.4171C506.648 43.8211 506.056 45.7805 504.87 47.2953C503.685 48.7772 502.054 49.8639 499.98 50.5554C497.905 51.247 495.501 51.5928 492.768 51.5928ZM218.386 138.281C206.573 138.281 197.571 135.185 191.379 128.994C185.259 122.803 182.199 113.267 182.199 100.386C182.199 91.9885 183.622 84.9788 186.469 79.3569C189.315 73.7349 193.514 69.5362 199.065 66.7608C204.616 63.9142 211.376 62.4909 219.347 62.4909C224.328 62.4909 228.847 63.0246 232.904 64.0921C236.96 65.1596 240.447 66.7963 243.365 69.0024C246.354 71.1374 248.631 73.8416 250.197 77.1152C251.833 80.3887 252.652 84.2672 252.652 88.7505H242.297C242.297 85.6193 241.728 82.9507 240.589 80.7446C239.451 78.4673 237.814 76.617 235.679 75.1937C233.615 73.7704 231.196 72.7741 228.42 72.2048C225.645 71.5643 222.692 71.2441 219.56 71.2441C215.29 71.2441 211.483 71.7778 208.138 72.8453C204.794 73.9128 201.983 75.5851 199.705 77.8624C197.428 80.1397 195.685 83.0574 194.475 86.6156C193.265 90.1738 192.66 94.4081 192.66 99.3185V101.56C192.66 108.178 193.657 113.551 195.649 117.679C197.713 121.806 200.666 124.831 204.509 126.752C208.352 128.603 212.978 129.528 218.386 129.528C223.866 129.528 228.385 128.781 231.943 127.286C235.501 125.72 238.134 123.372 239.842 120.241C241.621 117.11 242.511 113.16 242.511 108.392V107.111H216.678V98.4645H252.759V137H245.073L244.005 127.713C242.084 130.204 239.807 132.232 237.174 133.798C234.54 135.363 231.623 136.502 228.42 137.213C225.289 137.925 221.944 138.281 218.386 138.281ZM300.036 138.281C293.845 138.281 288.508 137.285 284.024 135.292C279.541 133.299 276.09 130.168 273.67 125.898C271.322 121.557 270.147 116.007 270.147 109.246V63.7718H280.288V110.313C280.288 116.718 281.996 121.522 285.412 124.724C288.899 127.927 293.774 129.528 300.036 129.528C306.37 129.528 311.316 127.927 314.874 124.724C318.432 121.522 320.212 116.718 320.212 110.313V63.7718H330.246V109.246C330.246 116.007 329.036 121.557 326.616 125.898C324.197 130.168 320.71 133.299 316.155 135.292C311.672 137.285 306.299 138.281 300.036 138.281ZM348.44 137V63.7718H358.581V137H348.44ZM376.899 137V63.7718H404.226C411.912 63.7718 418.459 65.0528 423.867 67.6147C429.276 70.1766 433.403 74.1619 436.25 79.5703C439.168 84.9077 440.627 91.8462 440.627 100.386C440.627 108.783 439.168 115.686 436.25 121.095C433.403 126.503 429.276 130.524 423.867 133.157C418.459 135.719 411.912 137 404.226 137H376.899ZM387.04 128.247H404.013C408.069 128.247 411.698 127.749 414.901 126.752C418.103 125.685 420.843 124.084 423.12 121.949C425.397 119.814 427.105 117.074 428.244 113.729C429.454 110.313 430.059 106.257 430.059 101.56V99.4252C430.059 94.586 429.454 90.4941 428.244 87.1494C427.105 83.7335 425.397 80.958 423.12 78.8231C420.914 76.6882 418.21 75.1226 415.007 74.1263C411.805 73.0588 408.14 72.5251 404.013 72.5251H387.04V128.247ZM455.291 137V63.7718H511.653V72.5251H465.432V95.1553H506.956V103.909H465.432V128.247H512.294V137H455.291Z" fill="#A4D9FF"/>
</g>
<defs>
<filter id="filter0_d_113_6" x="55.2498" y="17.3302" width="109.406" height="114.208" filterUnits="userSpaceOnUse" color-interpolation-filters="sRGB">
<feFlood flood-opacity="0" result="BackgroundImageFix"/>
<feColorMatrix in="SourceAlpha" type="matrix" values="0 0 0 0 0 0 0 0 0 0 0 0 0 0 0 0 0 0 127 0" result="hardAlpha"/>
<feOffset/>
<feGaussianBlur stdDeviation="5.57522"/>
<feComposite in2="hardAlpha" operator="out"/>
<feColorMatrix type="matrix" values="0 0 0 0 1 0 0 0 0 1 0 0 0 0 1 0 0 0 0.4 0"/>
<feBlend mode="normal" in2="BackgroundImageFix" result="effect1_dropShadow_113_6"/>
<feBlend mode="normal" in="SourceGraphic" in2="effect1_dropShadow_113_6" result="shape"/>
</filter>
<filter id="filter1_d_113_6" x="0.947549" y="0.326921" width="181.109" height="153.01" filterUnits="userSpaceOnUse" color-interpolation-filters="sRGB">
<feFlood flood-opacity="0" result="BackgroundImageFix"/>
<feColorMatrix in="SourceAlpha" type="matrix" values="0 0 0 0 0 0 0 0 0 0 0 0 0 0 0 0 0 0 127 0" result="hardAlpha"/>
<feOffset/>
<feGaussianBlur stdDeviation="5.57522"/>
<feComposite in2="hardAlpha" operator="out"/>
<feColorMatrix type="matrix" values="0 0 0 0 1 0 0 0 0 1 0 0 0 0 1 0 0 0 0.4 0"/>
<feBlend mode="normal" in2="BackgroundImageFix" result="effect1_dropShadow_113_6"/>
<feBlend mode="normal" in="SourceGraphic" in2="effect1_dropShadow_113_6" result="shape"/>
</filter>
<filter id="filter2_d_113_6" x="167.639" y="5.37096" width="355.805" height="144.06" filterUnits="userSpaceOnUse" color-interpolation-filters="sRGB">
<feFlood flood-opacity="0" result="BackgroundImageFix"/>
<feColorMatrix in="SourceAlpha" type="matrix" values="0 0 0 0 0 0 0 0 0 0 0 0 0 0 0 0 0 0 127 0" result="hardAlpha"/>
<feOffset/>
<feGaussianBlur stdDeviation="5.57522"/>
<feComposite in2="hardAlpha" operator="out"/>
<feColorMatrix type="matrix" values="0 0 0 0 1 0 0 0 0 1 0 0 0 0 1 0 0 0 0.4 0"/>
<feBlend mode="normal" in2="BackgroundImageFix" result="effect1_dropShadow_113_6"/>
<feBlend mode="normal" in="SourceGraphic" in2="effect1_dropShadow_113_6" result="shape"/>
</filter>
</defs>
</svg>
